<svg xmlns="http://www.w3.org/2000/svg" viewBox="0 0 64 64">
  <!-- ホワイト急便のブランドカラー（ピンク×紺青）。ロゴのハートモチーフを象った小サイズ用アイコン -->
  <defs>
    <linearGradient id="g" x1="0" y1="0" x2="1" y2="1">
      <stop offset="0" stop-color="#F24EA0"/>
      <stop offset="1" stop-color="#C42576"/>
    </linearGradient>
  </defs>
  <rect width="64" height="64" rx="15" fill="url(#g)"/>
  <!-- リボンが集まってできたハート（ロゴの意匠を単純化） -->
  <path fill="#fff" d="M32 50C21 41 14 34.5 14 27.5c0-5 3.7-8.5 8.4-8.5 3 0 5.6 1.5 7.1 3.9l2.5 4 2.5-4c1.5-2.4 4.1-3.9 7.1-3.9 4.7 0 8.4 3.5 8.4 8.5C50 34.5 43 41 32 50Z"/>
  <!-- 紺青のアクセント（中央のくびれ） -->
  <path fill="#004EA2" d="M32 26.9l-2.1 3.3a1 1 0 0 1-1.7 0L26 26.9c1.2.3 2.2 1.1 2.8 2.2l1.2 2 1.2-2c.6-1.1 1.6-1.9 2.8-2.2Z"/>
</svg>
