<svg xmlns="http://www.w3.org/2000/svg" width="493.762" height="392.599" viewBox="0 0 493.76 392.6"><defs><style>.cls-1{isolation:isolate;}.cls-2{fill:#ee86a8;}.cls-3{fill:#ed85a7;}.cls-4{fill:#e95389;}.cls-5{fill:#e85388;}.cls-6{fill:#fff;}.cls-7{mix-blend-mode:multiply;}.cls-8{fill:#004ea2;}</style></defs><g class="cls-1"><g id="_1" data-name="レイヤー 1"><path class="cls-2" d="M168.4,169.62c1.71-2.32,4.64-3.37,9.09-3.51l-1.39-7.25a251.93,251.93,0,0,1-21.8-27.28c-17.07-25.08-23.7-47.19-19.17-63.92A36.38,36.38,0,0,1,140.61,56a42.4,42.4,0,0,0-5.76-2.74c-4,3.7-6.85,9-8.28,15.71-4.4,20.59,4.42,54.83,36.19,97.15h1.5A4.2,4.2,0,0,1,168.4,169.62Z"/><path class="cls-2" d="M140.62,140.49C124,111.88,112.74,71.15,129.92,52c-17.87-1.1-22.39,32.84-13.51,63.64,4.77,16.53,12.86,33.71,22.91,50.49h18.12A292.33,292.33,0,0,1,140.62,140.49Z"/><path class="cls-3" d="M166.41,177.84v0c0-.42,0-.81,0-1.2a3.77,3.77,0,0,1-.7.34,4.06,4.06,0,0,1-1.48.29H157.1v15.49c3,4.13,6.15,8.19,9.32,12.17,0-.07,0-.14,0-.21Z"/><path class="cls-3" d="M184.45,202.46l-1.18-6.66h-2.75v9.49H185l-.54-2.83Z"/><path class="cls-3" d="M175.89,216.34c4.69,5.46,9.45,10.72,14.22,15.71l-3-15.59h-8.66C177.54,216.46,176.69,216.42,175.89,216.34Z"/><path class="cls-4" d="M200.81,173a4.2,4.2,0,0,1-4.21,4.21H184l1.41,7.38h7.21a4.2,4.2,0,0,1,4.21,4.21v2.75a4.2,4.2,0,0,1-4.21,4.21h-5.07c.62,3.25,1.23,6.42,1.81,9.49h6.89a4.16,4.16,0,0,1,1.69.36L202.7,180c-.64-3.38-1.29-6.75-1.93-10.09,0,.13,0,.26,0,.4Z"/><path class="cls-4" d="M200.62,169.11c-4.73-24.73-9.1-47.55-11.1-58-12.1-63.2-44.6-76.53-61.63-63.75,23.32,1,35.17,20.71,45.91,76.8,0,0,3.68,19.22,8,41.91H196.6A4.2,4.2,0,0,1,200.62,169.11Z"/><path class="cls-5" d="M193.69,228.13l2.19-11.67h-4.42C192.3,220.86,193.06,224.82,193.69,228.13Z"/><path class="cls-4" d="M194.06,112.13l10.79,56.39,9.51-50.83c-1.14-6-1.79-9.4-1.79-9.4-14.3-73.76-61.54-70.91-71-68.07C155.82,39.09,182.32,51.46,194.06,112.13Z"/><path class="cls-4" d="M309.61,166.09h1.61c4.35-22.69,8-41.91,8-41.91,10.75-56.09,22.59-75.83,45.9-76.8-17-12.78-49.53.55-61.63,63.75-2,10.24-6.2,32.44-10.84,56.65l.07-.09a4.22,4.22,0,0,1,3.31-1.6h3.33a4.21,4.21,0,0,1,3.33,6.79l-12.91,16.67,13.25,19.18c.75-3.89,1.53-8,2.34-12.23V170.3A4.21,4.21,0,0,1,309.61,166.09Z"/><path class="cls-4" d="M293.51,216.46a4.23,4.23,0,0,1-3.48-1.84l-4.93-7.24c-5.55,29-10.12,52.87-10.12,52.87,7.88-7.44,15.42-14.93,22.5-22.35.45-2.39,2-10.62,4.14-21.63a4.35,4.35,0,0,1-1.25.19Z"/><path class="cls-4" d="M274.6,167.87l8.51,12,3.83-4.85L299,112.13c11.73-60.67,38.24-73,52.47-71.91-9.45-2.84-56.68-5.69-71,68.07l-11.07,57.8h1.75A4.19,4.19,0,0,1,274.6,167.87Z"/><path class="cls-4" d="M266.59,180.84c-1.69,8.82-3.42,17.88-5.14,26.85l12.7-16.16Z"/><path class="cls-4" d="M270.16,214.86a4.2,4.2,0,0,1-3.3,1.6h-3.64a4.19,4.19,0,0,1-2.81-1.09V216a4.19,4.19,0,0,1-1.09,2.81c-5.57,29.12-10.64,55.57-12.79,66.84,8-6.78,15.79-13.66,23.16-20.48.95-4.94,6.21-32.43,12-62.79l-.8-1.17Z"/><path class="cls-4" d="M237.8,208h12.58c.75-3.93,1.51-7.88,2.26-11.82H237.8Z"/><path class="cls-4" d="M229.87,220l-8.29,43.31c5,4.66,10.22,9.37,15.54,14l10.93-57.09H232A9.25,9.25,0,0,1,229.87,220Z"/><path class="cls-4" d="M237.8,174.51v9.79h16.58a4.93,4.93,0,0,1,.54,0c.65-3.39,1.29-6.75,1.92-10a4.23,4.23,0,0,1-1.19.19Z"/><path class="cls-4" d="M258.79,164.14c4.62-24.17,8.12-42.45,8.12-42.45,10.76-56,22.59-75.84,45.91-76.8-17-12.78-49.53.54-61.63,63.74l-10.35,54.09h14.81A4.2,4.2,0,0,1,258.79,164.14Z"/><path class="cls-4" d="M222.65,210.89V172.06a9.35,9.35,0,0,1,9.34-9.34h4.5l10.16-53.09c11.74-60.66,38.24-73,52.47-71.9-9.44-2.86-56.67-5.7-71,68.06L201.7,244c5.19,5.28,10.62,10.61,16.2,15.89l8-41.86A9.32,9.32,0,0,1,222.65,210.89Z"/><path class="cls-2" d="M329.65,166.93c32.27-42.71,41.25-77.27,36.82-98-1.42-6.69-4.26-12-8.27-15.71A41.29,41.29,0,0,0,352.44,56a36.14,36.14,0,0,1,5.47,11.69c4.53,16.73-2.1,38.84-19.16,63.92A254.4,254.4,0,0,1,317,158.86l-1.38,7.23h7.37A26.22,26.22,0,0,1,329.65,166.93Z"/><path class="cls-3" d="M319.51,196v16.27a4.16,4.16,0,0,1-.47,1.89c5.54-6.54,11-13.36,16.15-20.38a19.8,19.8,0,0,1-9.6,2.22Z"/><path class="cls-3" d="M309.61,216.46a4.18,4.18,0,0,1-3.36-1.7l-3.31,17.29c5-5.2,9.94-10.69,14.82-16.39a4.21,4.21,0,0,1-2.47.8Z"/><path class="cls-2" d="M342,181.37h.05V170.3a4.21,4.21,0,0,1,4.21-4.21h7.44c10-16.78,18.14-34,22.91-50.49C385.52,84.8,381,50.86,363.13,52c17.17,19.19,5.91,59.92-10.71,88.53a295.9,295.9,0,0,1-18.59,28A14.57,14.57,0,0,1,342,181.37Z"/><path class="cls-6" d="M200.62,169.11l.15.79A3.45,3.45,0,0,0,200.62,169.11Z"/><path class="cls-6" d="M319,214.14l-1.28,1.52A4.38,4.38,0,0,0,319,214.14Z"/><g class="cls-7"><path class="cls-6" d="M67.11,162.9H65.27A7.07,7.07,0,0,0,59,166.52l-.12.23L46.27,194.08,34.72,168.61a10.37,10.37,0,0,0-9.59-5.7c-1.63,0-3,0-4.23,0a4.23,4.23,0,0,0-4.25,3.42,11.37,11.37,0,0,0-2.1-1.74,11.55,11.55,0,0,0-6.26-1.83H4.21a4.21,4.21,0,0,0-3.55,1.95,4.26,4.26,0,0,0-.27,4.05L24,219.23a4.19,4.19,0,0,0,3.81,2.43h0a4.21,4.21,0,0,0,3.82-2.42L36,209.91l4.25,9.25A4.21,4.21,0,0,0,44,221.62h0a4.2,4.2,0,0,0,3.82-2.46L71,168.87a4.23,4.23,0,0,0-.29-4.05A4.34,4.34,0,0,0,67.11,162.9Z"/><path class="cls-6" d="M109.07,166.09h-5.68a4.2,4.2,0,0,0-4.21,4.21v14.31H85.84V170.3a4.2,4.2,0,0,0-4.21-4.21H75.94a4.21,4.21,0,0,0-4.21,4.21v41.95a4.21,4.21,0,0,0,4.21,4.21h5.69a4.2,4.2,0,0,0,4.21-4.21V195.78H99.18v16.47a4.2,4.2,0,0,0,4.21,4.21h5.68a4.21,4.21,0,0,0,4.22-4.21V170.3A4.21,4.21,0,0,0,109.07,166.09Z"/><path class="cls-6" d="M289.81,189.55l12.91-16.67a4.21,4.21,0,0,0-3.33-6.79h-3.33a4.22,4.22,0,0,0-3.31,1.6l-9.64,12.23-8.51-12a4.19,4.19,0,0,0-3.44-1.78H264.3a4.21,4.21,0,0,0-3.44,6.64l13.29,18.8-14.24,18.12c-.07.09-.13.19-.2.29a4.2,4.2,0,0,0-3.51-1.9H237.8V196.22h16.58a4.22,4.22,0,0,0,4.21-4.21v-3.5a4.21,4.21,0,0,0-4.21-4.21H237.8v-9.79h17.85a4.2,4.2,0,0,0,4.21-4.21v-3.37a4.2,4.2,0,0,0-4.21-4.21H232a9.35,9.35,0,0,0-9.34,9.34v38.83a9.35,9.35,0,0,0,9.34,9.34H256.2a4.2,4.2,0,0,0,4.21-4.21v-.65a4.19,4.19,0,0,0,2.81,1.09h3.64a4.2,4.2,0,0,0,3.3-1.6l10.75-13.63L290,214.62a4.23,4.23,0,0,0,3.48,1.84h6.86a4.21,4.21,0,0,0,3.47-6.6Z"/><path class="cls-6" d="M368.84,195.05c6.17-1.92,9.89-6.68,9.89-13.19,0-9.43-7.68-15.77-19.1-15.77H346.29a4.21,4.21,0,0,0-4.21,4.21v11.07H342c-.27-9.16-7.86-15.28-19.09-15.28H309.61a4.21,4.21,0,0,0-4.21,4.21v41.95a4.21,4.21,0,0,0,4.21,4.21h5.68a4.21,4.21,0,0,0,4.22-4.21V196h6.08c8.51,0,14.45-4,16-10.51h.46v26.78a4.21,4.21,0,0,0,4.21,4.21H352a4.2,4.2,0,0,0,4.21-4.21V201.32l9.29,13.34a4.22,4.22,0,0,0,3.46,1.8h6.76a4.21,4.21,0,0,0,3.45-6.62Z"/><path class="cls-6" d="M410.17,205.29H394.49V195.8h12.05a4.2,4.2,0,0,0,4.21-4.21v-2.75a4.2,4.2,0,0,0-4.21-4.21H394.49v-7.37h16.07a4.2,4.2,0,0,0,4.21-4.21V170.3a4.2,4.2,0,0,0-4.21-4.21H392.43c-8.79,0-12.05,3.18-12.05,11.75V204.7c0,8.57,3.26,11.76,12.05,11.76h17.74a4.21,4.21,0,0,0,4.21-4.21V209.5A4.22,4.22,0,0,0,410.17,205.29Z"/><path class="cls-6" d="M465.68,184.62l-4-1.29c-3.41-1.06-3.41-2-3.41-3.53s.23-2.55,3-2.55H471a4.2,4.2,0,0,0,4.21-4.21V170.3a4.2,4.2,0,0,0-4.21-4.21h-9.31c-10.38,0-17.35,6.34-17.35,15.77,0,6.93,4.57,12.27,12.47,14.61l4.79,1.5c3,.86,3.13,1.73,3.13,3.59s0,3.73-5,3.73h-10a4.2,4.2,0,0,0-2,.51,17.84,17.84,0,0,0,.83-5.51c0-10.26-7.54-13.86-13.2-15.67l-4-1.29c-3.41-1.06-3.41-2-3.41-3.53s.23-2.55,3-2.55h9.7A4.2,4.2,0,0,0,445,173V170.3a4.2,4.2,0,0,0-4.21-4.21h-9.31c-10.38,0-17.35,6.34-17.35,15.77,0,6.93,4.57,12.27,12.47,14.61l4.79,1.5c3,.86,3.13,1.73,3.13,3.59s0,3.73-5,3.73h-10a4.22,4.22,0,0,0-4.22,4.21v2.75a4.21,4.21,0,0,0,4.22,4.21h10c7.34,0,12.85-2.28,16-6.37v2.16a4.21,4.21,0,0,0,4.21,4.21h10c12,0,19.11-6,19.11-16.17S471.34,186.43,465.68,184.62Z"/><path class="cls-6" d="M485.53,201.25a8.23,8.23,0,1,0,8.23,8.23A8.24,8.24,0,0,0,485.53,201.25Z"/></g><path class="cls-8" d="M341.84,324.78V336c2.24-3.12,4.53-6.38,6.63-10v29h6.23V311.83a61.31,61.31,0,0,0,2.21-11.21h-6.27C349.52,310.41,345.3,319,341.84,324.78Z"/><path class="cls-8" d="M379.09,336.11H391.4V310.29H379.09V306.6h12.3v-6.24H360.55v6.24h12.31v3.69H360.57v25.82h12.29v.16a16.12,16.12,0,0,1-1,6.06,21.12,21.12,0,0,1-4.22-3.91h-7.47a30.34,30.34,0,0,0,7.6,8.51c-2.1,1.14-5,1.76-8.83,1.78v6.23c6.65,0,11.47-1.48,14.72-4.26a38.85,38.85,0,0,0,17.72,4.25v-6.24a36.58,36.58,0,0,1-13.95-3.19,23.06,23.06,0,0,0,1.65-9.23Zm0-19.59h6.06v3.56h-6.06Zm0,9.79h6.06v3.56h-6.06Zm-6.23,3.56H366.8v-3.56h6.06Zm0-9.79H366.8v-3.56h6.06Z"/><path class="cls-8" d="M302.1,340.23h-6.29a84.26,84.26,0,0,1-3.65,14.69h.12a0,0,0,0,1,0,0h6.58a90.09,90.09,0,0,0,3.37-14.67h-.12Z"/><path class="cls-8" d="M310.65,348.72V337.3H317l2.6,8.73h6.51l-2.6-8.73H336V310.25h-6.31l4-8.18c.48-1-.15-1.71-1.16-1.71H303.82a6.94,6.94,0,0,0-6,4.05l-6.7,15.36H298l1.43-3.28h30.38v4.18H297.39v6.22h32.37v4.18H297.39v6.23h7V355h24.3l-1.86-6.23Zm12.07-38.47H302.1l1.6-3.65h20.83Z"/><polygon class="cls-8" points="329.96 340.28 334.32 354.95 340.83 354.95 336.46 340.28 329.96 340.28"/><path class="cls-8" d="M286.43,321.81l-30.88-5.6V302.35a2,2,0,0,0-2-2H233.83c-10.91,0-19.36,5.72-27.52,11.26-4.63,3.15-9.12,6.19-14,8.26,0-.29,0-.58,0-.88V303.8a2,2,0,0,0-2-2H149.45a2,2,0,0,0-2,2v2.76H125.38v-4.21a2,2,0,0,0-2-2h-8a2,2,0,0,0-2,2v4.21H96.16a2,2,0,0,0-2,2v8a2,2,0,0,0,2,2h17.23V353a2,2,0,0,0,2,2h8a2,2,0,0,0,2-2V318.54h22.08v8.67a2,2,0,0,0,2,2h8a2,2,0,0,0,2-2V313.79h20.85V319c0,18.44-6.28,23.05-20.24,24.64a2.43,2.43,0,0,0-1.92,2.22v8a1.73,1.73,0,0,0,2,1.76c10.88-1.39,25.33-3.81,30.35-21.69a59.63,59.63,0,0,0,17.47-8.07V353a2,2,0,0,0,2,2h8.78a2,2,0,0,0,2-2V317.5c4.36-2.57,8.56-4.34,13.1-4.34h8.92V353a2,2,0,0,0,2,2h8.79a2,2,0,0,0,2-2V329.2l30.93,5.6a1.61,1.61,0,0,0,2-1.65v-9A2.48,2.48,0,0,0,286.43,321.81ZM284,329.87l-32.9-6v26.66h-3.72V308.75H234c-6.39,0-12,2.79-17.62,6.36v35.45H212.6v-33l-1.51,1c-7.24,4.91-14.7,10-24.21,11.69-3.16,15.59-13.38,19-24.08,20.58V348c5.13-.76,11.28-2.28,15.61-6.65,4.53-4.55,6.54-11.4,6.54-22.21v-9.75h-29.9v15.42h-2.93V314.15h-31.4v36.41h-2.93V314.15H98.55v-2.92h19.24V305h2.93v6.2h31.4v-4.77h35.76v12.68a63.38,63.38,0,0,1-.38,7.19c8.24-1.84,15-6.4,21.49-10.82,7.95-5.39,15.46-10.48,25-10.48h17.18v15.09l32.9,6Z"/><path class="cls-8" d="M107.44,323.17H99.87a2,2,0,0,0-2.07,1.92A266.1,266.1,0,0,1,95.2,353a1.64,1.64,0,0,0,1.69,2h7.66a2.44,2.44,0,0,0,2.29-2c1-6.47,2.26-20.68,2.47-27.77A1.9,1.9,0,0,0,107.44,323.17Zm-4.69,27.39h-2.47c1.21-8.93,1.79-17.66,2.06-22.73h2.44C104.52,333,103.93,341.7,102.75,350.56Z"/><path class="cls-8" d="M143.63,353a266.36,266.36,0,0,1-2.58-27.86,2.06,2.06,0,0,0-2.08-1.92H131.4a1.89,1.89,0,0,0-1.86,2c.19,7.09,1.46,21.3,2.46,27.77a2.44,2.44,0,0,0,2.3,2H142A1.63,1.63,0,0,0,143.63,353Zm-7.27-2.39c-1.18-8.86-1.77-17.6-2-22.73h2.45c.26,5.07.86,13.8,2.06,22.73Z"/><path class="cls-8" d="M407.49,351.21a4.76,4.76,0,1,1-4.76-4.76A4.75,4.75,0,0,1,407.49,351.21Z"/><path class="cls-8" d="M30.58,188.1l-9.79-21c1.25,0,2.67.05,4.34.05a6.23,6.23,0,0,1,5.75,3.24l15.37,33.86,16.41-35.71a2.93,2.93,0,0,1,2.61-1.39h1.87L44,217.4,32.26,191.79Z"/><path class="cls-8" d="M75.94,212.25V170.3h5.69v18.52h21.76V170.3h5.68v41.95h-5.68V191.57H81.63v20.68Z"/><path class="cls-8" d="M128.77,170.3v41.95h-5.68V170.3Z"/><path class="cls-8" d="M147.2,173H135.93V170.3h28.33V173H152.89v39.21H147.2Z"/><path class="cls-8" d="M178.47,170.3H196.6V173H181.21c-3.63,0-4.9.2-4.9,3.24v12.56h16.27v2.75H176.31v14.58c0,3,1.27,3.33,4.9,3.33h15v2.75H178.47c-6.57,0-7.85-1.37-7.85-7.55V177.84C170.62,171.67,171.9,170.3,178.47,170.3Z"/><path class="cls-8" d="M256.2,216H232a5.12,5.12,0,0,1-5.13-5.13V172.06a5.12,5.12,0,0,1,5.13-5.13h23.66v3.37H233.59v18.21h20.79V192H233.59v20.25H256.2Z"/><path class="cls-8" d="M266.86,212.25h-3.64l16.18-20.59L264.3,170.3h6.86L282.93,187l13.13-16.66h3.33l-14.8,19.11,15.78,22.84h-6.86l-12.35-18.14Z"/><path class="cls-8" d="M346.29,212.25V170.3h13.34c9.31,0,14.89,4.7,14.89,11.56,0,6.18-4.41,9.9-12.25,9.9h-.85l14.28,20.49h-6.76L353.37,189.9h6.16c6,0,8.92-2.94,8.92-8.62,0-6.18-3.63-8.24-11.37-8.24H352v39.21Z"/><path class="cls-8" d="M317.56,189.9h5.28c6,0,8.93-2.94,8.93-8.62,0-6.18-3.63-8.24-11.37-8.24h-5.1v39.21h-5.69V170.3h13.33c9.32,0,14.9,4.7,14.9,11.56,0,6.18-4.41,9.9-12.25,9.9h-6.7Z"/><path class="cls-8" d="M392.43,170.3h18.13V173H395.18c-3.63,0-4.9.2-4.9,3.24v12.56h16.26v2.75H390.28v14.58c0,3,1.27,3.33,4.9,3.33h15v2.75H392.43c-6.57,0-7.84-1.37-7.84-7.55V177.84C384.59,171.67,385.86,170.3,392.43,170.3Z"/><path class="cls-8" d="M419.54,209.5h10c6.18,0,9.21-2.64,9.21-7.94,0-4.11-1.76-6.37-6.17-7.64l-4.7-1.47c-6.28-1.86-9.52-5.69-9.52-10.59,0-7,5-11.56,13.14-11.56h9.31V173h-9.7c-4.61,0-7.25,2.55-7.25,6.76,0,4,1.95,6.18,6.37,7.55l3.92,1.28c7.05,2.25,10.29,5.58,10.29,11.66,0,7.65-5.19,12-14.9,12h-10Z"/><path class="cls-8" d="M449.77,209.5h10c6.17,0,9.21-2.64,9.21-7.94,0-4.11-1.76-6.37-6.17-7.64l-4.7-1.47c-6.28-1.86-9.51-5.69-9.51-10.59,0-7,5-11.56,13.13-11.56H471V173h-9.7c-4.61,0-7.25,2.55-7.25,6.76,0,4,2,6.18,6.37,7.55l3.92,1.28c7.06,2.25,10.29,5.58,10.29,11.66,0,7.65-5.2,12-14.9,12h-10Z"/><path class="cls-8" d="M489.55,209.48a4,4,0,1,1-4-4A4,4,0,0,1,489.55,209.48Z"/><path class="cls-8" d="M32.19,208,15,171.22a7.44,7.44,0,0,0-6.75-4.29H4.21l23.56,50.52Z"/></g></g></svg>
